<?xml version="1.0" encoding="UTF-8"?>
<!-- Generator: Adobe Illustrator 21.1.0, SVG Export Plug-In . SVG Version: 6.00 Build 0)  -->
<svg xmlns="http://www.w3.org/2000/svg" xmlns:xlink="http://www.w3.org/1999/xlink" id="Logo_Master" x="0px" y="0px" viewBox="0 0 300 53" style="enable-background:new 0 0 300 53;" xml:space="preserve">
<style type="text/css">
	.st0{fill:#414042;}
	.st1{fill:url(#SVGID_1_);}
	.st2{clip-path:url(#SVGID_3_);fill:url(#SVGID_4_);}
	.st3{fill:#FFFFFF;}
</style>
<g>
	<g>
		<path class="st0" d="M92.3,32.3c-0.5-3.6-3.9-3.9-6.8-3.9c-3.1,0-5,1.4-5,3.2c0,1.5,1.2,2.3,3.1,2.6l9.3,1.5    c5,0.8,8.7,2.7,8.7,7.6c0,5.1-3.4,9.2-14.2,9.2c-6.6,0-15.3-0.8-15.3-9.4h8.3c0.1,3.7,3.8,4.4,7,4.4c3.5,0,5.8-1,5.8-3.4    c0-2.1-1.7-2.7-4.6-3.1l-6.8-1c-4.7-0.7-9.3-2.1-9.3-7.7c0-6.1,5-8.6,13.5-8.6c5.6,0,13.9,1,14.4,8.7H92.3z"></path>
		<path class="st0" d="M136.5,39.3c0-2.7-2.2-3.5-4.1-3.5c-2.8,0-5.1,1.5-5.1,4.7v11.1h-6.7V39.3c0-2.7-2.2-3.5-4-3.5    c-2.9,0-5.2,1.5-5.2,4.7v11.1h-6.7V31.1h6.5v3h0.1c1.2-1.7,4.4-3.5,8.4-3.5c3.9,0,6,1.5,7.1,3.9c1.9-2.4,4.7-3.9,8.4-3.9    c4.1,0,8.1,1.8,8.1,7.1v13.9h-6.7V39.3z"></path>
		<path class="st0" d="M147.9,37.4c0.8-6.3,6.6-7,12.1-7c9.6,0,11.7,3.1,11.7,6.9v10.2c0,1.8,0.3,3.1,0.8,4.1h-6.7    c-0.2-0.7-0.4-1.5-0.5-2.2c-2.3,2.3-6.6,2.9-9.6,2.9c-5.3,0-9.1-1.9-9.1-6.6c0-5,4.4-6,8.5-6.3l7.1-0.5c2.1-0.2,2.7-0.5,2.7-2.1    c0-1.6-1.4-2.4-5.3-2.4c-2.9,0-4.4,0.2-5.3,3.1H147.9z M165.1,41.6c-1.3,0.6-2.6,0.8-4,0.9l-3.9,0.3c-2.4,0.2-3.6,0.8-3.6,2.7    c0,1.8,1.7,2.9,4.2,2.9c3.4,0,7.2-1.6,7.2-5.1V41.6z"></path>
		<path class="st0" d="M175.9,31.1h6.5v4h0.1c2.4-3.1,4.4-4.5,8.2-4.5c0.8,0,1.7,0,2.4,0.2v6.3c-1.2-0.3-2.4-0.6-3.7-0.6    c-4.6,0-6.8,2.3-6.8,6.3v8.8h-6.7V31.1z"></path>
		<path class="st0" d="M198.8,24.8h6.7v6.3h5.4v4.5h-5.4v9.5c0,1.6,0.5,2.1,2.3,2.1c1.2,0,2.2-0.1,3.3-0.2v4.5    c-1.3,0.2-3.8,0.4-5.3,0.4c-6.4,0-7-2.4-7-6.1V35.6h-4.2v-4.5h4.2V24.8z"></path>
		<path class="st0" d="M235.9,24.3h4.4l-11.9,27.3H224l-12.1-27.3h4.6l9.8,23.1L235.9,24.3z"></path>
		<path class="st0" d="M242,42.7c0.3,4.1,4,6.3,7.4,6.3c2.2,0,5.2-0.7,6.5-3.6h4c-1.9,4.8-6.4,6.8-10.3,6.8    c-7.8,0-11.6-4.9-11.6-10.7s3.8-10.7,11.6-10.7c5.3,0,10.8,3.1,10.8,11.3v0.5H242z M256.4,39.8c-0.6-3.6-3.4-5.7-7-5.7    c-3.5,0-6.7,2.1-7.3,5.7H256.4z"></path>
		<path class="st0" d="M263.3,31.6h3.8v3h0.1c1.8-2.8,5-3.7,7.8-3.7c4.8,0,8.4,2.1,8.4,7.1v13.6h-3.8V38.7c0-2.9-1.8-4.6-5.9-4.6    c-3.5,0-6.6,2-6.6,6v11.5h-3.8V31.6z"></path>
		<path class="st0" d="M289.8,25.5h3.8v6.1h5.7v3h-5.7v12.3c0,1.6,1.1,2.2,3.1,2.2c0.9,0,1.8-0.1,2.6-0.3V52    c-1.3,0.2-2.7,0.3-4.3,0.3c-3.7,0-5.3-1.8-5.3-4.7v-13h-4.1v-3h4.1V25.5z"></path>
	</g>
	<g>
		<linearGradient id="SVGID_1_" gradientUnits="userSpaceOnUse" x1="32.0079" y1="52.2825" x2="32.0079" y2="0.6299">
			<stop offset="0" style="stop-color:#3A9E42"></stop>
			<stop offset="0.5" style="stop-color:#72BF44"></stop>
		</linearGradient>
		<path class="st1" d="M62.3,21.3C57.6,18,33.9,1.2,33.9,1.2c-0.7-0.5-1.3-0.6-1.9-0.6l0,0l0,0l0,0l0,0c-0.6,0-1.3,0.1-1.9,0.6    c0,0-23.6,16.8-28.4,20.1c-1.9,1.4-1,2.8,0.6,2.8h5.3v25.8c0,0,0,2.4,2.4,2.4h22h0h22c2.4,0,2.4-2.4,2.4-2.4V24.1h5.3    C63.3,24.1,64.2,22.7,62.3,21.3z"></path>
		<g>
			<defs>
				<path id="SVGID_2_" d="M62.3,21.3C57.6,18,33.9,1.2,33.9,1.2c-0.7-0.5-1.3-0.6-1.9-0.6l0,0l0,0l0,0l0,0c-0.6,0-1.3,0.1-1.9,0.6      c0,0-23.6,16.8-28.4,20.1c-1.9,1.4-1,2.8,0.6,2.8h5.3v25.8c0,0,0,2.4,2.4,2.4h22h0h22c2.4,0,2.4-2.4,2.4-2.4V24.1h5.3      C63.3,24.1,64.2,22.7,62.3,21.3z"></path>
			</defs>
			<clipPath id="SVGID_3_">
				<use xlink:href="#SVGID_2_" style="overflow:visible;"></use>
			</clipPath>
			<linearGradient id="SVGID_4_" gradientUnits="userSpaceOnUse" x1="32.0069" y1="35.8154" x2="32.0069" y2="-21.4461">
				<stop offset="0" style="stop-color:#80C342"></stop>
				<stop offset="0.4294" style="stop-color:#C9DC50"></stop>
				<stop offset="0.6933" style="stop-color:#FFF21F"></stop>
			</linearGradient>
			<ellipse class="st2" cx="32" cy="7.2" rx="50.4" ry="28.6"></ellipse>
		</g>
		<path class="st3" d="M26.4,30.6c0,0,0.8-0.2,1.7-1.3c0.8-1.2,1.5-3,2.4-4.5c0.9-1.5,2.1-2.5,3.4-4.1c1.3-1.7,1.1-2.9,1.3-4.2    c0.2-1.4,0.4-2.1,0.4-2.1s2.2-0.5,3.1,1.5c0.9,2,0.7,3.7-0.3,5.8c-1.1,2.1-1.5,3.8-1.5,4.4c0,0.6,1.9,0.5,3.4,0.5    c1.5-0.1,2.4-0.4,3.9-0.4c1.5,0,2.4,1.2,2.6,2.2c0.2,1.1-0.6,2.7-0.6,2.7s0.8,0.6,0.6,1.9c-0.2,1.2-1.1,2.2-1.1,2.2    s0.8,0.6,0.4,2.1c-0.4,1.5-1.5,1.9-1.5,1.9s0.5,1.7-0.8,3.1c-1.4,1.4-2.3,1.7-6.3,1.5c-4-0.2-5.1-0.7-6.6-1.3    c-3.4-1.4-4.4-0.6-4.4-0.6V30.6z"></path>
		<path class="st3" d="M27.7,41.7c0,1.4-0.5,1.9-1.9,1.9h-5.8c-1.4,0-1.9-0.5-1.9-1.9V31.7c0-1.4,0.5-1.9,1.9-1.9h5.8    c1.4,0,1.9,0.5,1.9,1.9V41.7z"></path>
	</g>
</g>
</svg>
